<?xml version="1.0" encoding="utf-8"?>
<!-- Generator: Adobe Illustrator 25.4.1, SVG Export Plug-In . SVG Version: 6.00 Build 0)  -->
<svg version="1.1" id="Layer_1_copy_2" xmlns="http://www.w3.org/2000/svg" xmlns:xlink="http://www.w3.org/1999/xlink" x="0px"
	 y="0px" viewBox="0 0 1024 1024" style="enable-background:new 0 0 1024 1024;" xml:space="preserve">
<style type="text/css">
	.st0{fill:#FFD0A1;}
	.st1{fill:#80D6FA;}
	.st2{fill:#FF7474;}
	.st3{fill:#FFFFFF;}
	.st4{fill:#F2EDDA;}
	.st5{fill:#51565F;}
	.st6{fill:#324A5E;}
</style>
<polygon class="st0" points="1006,824.5 22,824.5 22,943.5 186.7,943.5 186.7,1012 248.4,1012 248.4,943.5 779.6,943.5 779.6,1012 
	841.3,1012 841.3,943.5 1006,943.5 "/>
<path class="st1" d="M195.3,824H22V151c0-16.6,13.4-30,30-30h113.3c16.6,0,30,13.4,30,30V824z"/>
<path class="st2" d="M195.3,824.5h244.7v-557c0-16.6-13.4-30-30-30H225.3c-16.6,0-30,13.4-30,30V824.5z"/>
<rect x="22" y="316" class="st2" width="173.3" height="118"/>
<rect x="245.4" y="314" class="st3" width="143.2" height="44"/>
<rect x="245.4" y="412" class="st3" width="143.2" height="44"/>
<polygon class="st0" points="530.6,422.6 595.5,410.5 556.6,200.5 491.7,212.5 "/>
<path class="st4" d="M533.1,420.3l60.3-11l-38.9-205.9l-60.3,11L533.1,420.3L533.1,420.3z M592.5,74.8l139,735.6l-97.7,14.2l-86.6,0
	l-141-746.4l-5.6-29.4l180.9-32.9L592.5,74.8L592.5,74.8z"/>
<path class="st1" d="M818.3,140.2l186.5,598.3c4.9,15.6-5.3,32.7-22.6,37.9L825,823.5L629.6,196.8L818.3,140.2z M800.5,83.2l17.8,57
	l-188.7,56.6L603,111.3l157.2-47.1C777.5,59,795.6,67.5,800.5,83.2z"/>
<polygon class="st2" points="767.9,370.1 879.7,336.5 843.7,221 731.9,254.5 "/>
<g>
	<path class="st5" d="M849.3,1020h-77.7v-68.5H256.4v68.5h-77.7v-68.5H14V151c0-21,17-38,38-38h113.3c21,0,38,17,38,38v85.5
		c6.2-4.4,13.8-7,22-7h184.7c6.2,0,12.1,1.5,17.3,4.2L391.2,42.4L587.8,6.7l14.1,74.5l-0.1,0l3.9,20.9l152.1-45.6
		C779.4,50,802,61,808.2,80.8l40.6,130.3l0.2-0.1l40.8,130.8l-0.2,0.1l122.9,394.1c2.8,9.1,1.8,18.9-2.8,27.7
		c-5.1,9.6-14.3,17-25.1,20.3l-108.2,32.5H1014v135H849.3V1020z M787.6,1004h45.7v-68.5H998v-103H822.9l-3.2,1l-0.3-1H635.1
		l-0.7,0.1l-93.9,0l0-0.1H30v103h164.7v68.5h45.7v-68.5h547.2V1004z M740.8,816.5h73.6l-187-599.8L740.8,816.5z M553.8,816.5H634
		l88.1-12.8l-139-735.3l0.1,0l-8.2-43.2l-165.1,30L553.8,816.5z M448.1,816.5h89.5l-89.5-473.4V816.5z M203.3,816.5h228.7v-549
		c0-12.1-9.9-22-22-22H225.3c-12.1,0-22,9.9-22,22V816.5z M30,816h157.3V442H30V816z M639.7,202.1l190.6,611.5l149.6-44.9
		c6.8-2,12.4-6.6,15.6-12.4c2.6-5,3.2-10.4,1.7-15.4L874.2,346.6L762.7,380l-40.8-130.8l111.6-33.5L813,150.1L639.7,202.1z M30,426
		h157.3V324H30V426z M742,259.8l31.3,100.3l96.2-28.9L838.2,231L742,259.8z M30,308h157.3V151c0-12.1-9.9-22-22-22H52
		c-12.1,0-22,9.9-22,22V308z M613,116.6l21.9,70.2l173.3-52l-15.4-49.3c-3.6-11.5-17.2-17.7-30.4-13.8l-2.3-7.7l2.3,7.7L613,116.6z
		 M396.6,464H237.4v-60h159.2V464z M253.4,448h127.2v-28H253.4V448z M526.8,429.6L484.9,208l76-13.8l41.9,221.6L526.8,429.6z
		 M503.6,220.8L539.5,411l44.5-8.1l-35.9-190.2L503.6,220.8z M396.6,366H237.4v-60h159.2V366z M253.4,350h127.2v-28H253.4V350z"/>
</g>
<path class="st6" d="M990.6,943.2l-69.8-69.8c19.2-29.5,30.3-64.7,30.3-102.5c0-72.4-40.9-135.3-100.8-166.8
	c-26.1-13.7-55.9-21.5-87.5-21.5c-25.4,0-49.6,5-71.7,14.2c-34.1,14.1-63.2,37.8-83.8,67.9c-20.7,30.2-32.8,66.8-32.8,106.3
	c0,20.6,3.3,40.5,9.5,59c24.8,75.1,95.5,129.3,178.9,129.3c37,0,71.5-10.7,100.6-29.1l70.2,70.2c15.7,15.7,41.3,15.7,57,0l0,0
	C1006.4,984.4,1006.4,958.9,990.6,943.2z"/>
<circle class="st3" cx="760.7" cy="770.8" r="126.6"/>
</svg>
